# xmcd CD database file
#
# Track frame offsets:
#	150
#	10222
#	20903
#	30846
#	41444
#	54460
#	65775
#	78567
#	88701
#	99661
#
# Disc length: 1504 seconds
#
# Revision: 0
# Processed by: cddbd v1.4PL0 Copyright (c) Steve Scherf et al.
# Submitted via: Feurio! 1.66 - http://www.feurio.com
#
DISCID=7a05de0a
DTITLE=Jan Howard - Bad Seed
DYEAR=1973
DGENRE=Country
TTITLE0=??? - Son of a preacher man
TTITLE1=??? - I get the fever
TTITLE2=??? - Your good girl's gonna go bad
TTITLE3=??? - Count your blessings, woman
TTITLE4=??? - Bad Seed
TTITLE5=??? - Ribbon of darkness
TTITLE6=??? - Put if off until tomorrow
TTITLE7=??? - Until my dreams come true
TTITLE8=??? - Happy state of mind
TTITLE9=??? - The tip of my fingers
EXTD=Kommentar: 1973 MCA Records, Inc.\r\n
EXTT0=Songwriter: J. Hurley - R. Wilkins - Tree Publishing Co, Inc. BMI\r\n
EXTT1=Songwriter: B. Anderson - Stallion Music, Inc BMI\r\n
EXTT2=Songwriter: B. Sherriff - G. Sutton - Al Gallico Music Corporation BMI\r\n
EXTT3=Songwriter: B. Anderson - Stallion Music, Inc BMI\r\n
EXTT4=Songwriter: B. Anderson - Stallion Music, Inc BMI\r\n
EXTT5=Songwriter: G. Lightfoot - Warner Bros. Music ASCAP\r\n
EXTT6=Songwriter: D. Parton - B. Owens - Combine Music Corporation BMI\r\n
EXTT7=Songwriter: D. Frazier - Blue Crest Music Inc BMI\r\n
EXTT8=Songwriter: B. Anderson - Stallion Music, Inc BMI\r\n
EXTT9=Songwriter: B. Anderson - Tree Publishing Inc - Champion Music Corp BMI\r\n
PLAYORDER=
